<mxfile host="app.diagrams.net" agent="Mozilla/5.0 (Windows NT 10.0; Win64; x64) AppleWebKit/537.36 (KHTML, like Gecko) Chrome/131.0.0.0 Safari/537.36" version="24.8.0">
  <diagram id="R2lEEEUBdFMjLlhIrx00" name="Page-1">
    <mxGraphModel dx="1562" dy="938" grid="1" gridSize="10" guides="1" tooltips="1" connect="1" arrows="1" fold="1" page="1" pageScale="1" pageWidth="850" pageHeight="1100" math="0" shadow="0" extFonts="Permanent Marker^https://fonts.googleapis.com/css?family=Permanent+Marker">
      <root>
        <mxCell id="0" />
        <mxCell id="1" parent="0" />
        <mxCell id="ESwnANH3MgLvUC6T9eyU-3" value="" style="edgeStyle=orthogonalEdgeStyle;rounded=0;orthogonalLoop=1;jettySize=auto;html=1;fontSize=15;fontStyle=1" edge="1" parent="1" source="ESwnANH3MgLvUC6T9eyU-1" target="ESwnANH3MgLvUC6T9eyU-2">
          <mxGeometry relative="1" as="geometry" />
        </mxCell>
        <mxCell id="ESwnANH3MgLvUC6T9eyU-4" value="n" style="edgeLabel;html=1;align=center;verticalAlign=middle;resizable=0;points=[];fontSize=15;fontStyle=1" vertex="1" connectable="0" parent="ESwnANH3MgLvUC6T9eyU-3">
          <mxGeometry x="0.04" y="1" relative="1" as="geometry">
            <mxPoint as="offset" />
          </mxGeometry>
        </mxCell>
        <mxCell id="ESwnANH3MgLvUC6T9eyU-1" value="&lt;span style=&quot;color: rgb(51, 51, 51); font-family: PingFangSC-Medium, &amp;quot;PingFang SC Medium&amp;quot;, &amp;quot;PingFang SC&amp;quot;, sans-serif; font-size: 15px; text-align: left; background-color: rgb(242, 242, 242);&quot;&gt;固危废产生记录&lt;/span&gt;" style="rounded=1;whiteSpace=wrap;html=1;fontSize=15;fontStyle=1" vertex="1" parent="1">
          <mxGeometry x="380" y="130" width="120" height="60" as="geometry" />
        </mxCell>
        <mxCell id="ESwnANH3MgLvUC6T9eyU-2" value="园区企业表" style="rounded=1;whiteSpace=wrap;html=1;fontSize=15;fontStyle=1" vertex="1" parent="1">
          <mxGeometry x="140" y="130" width="120" height="60" as="geometry" />
        </mxCell>
        <mxCell id="ESwnANH3MgLvUC6T9eyU-6" value="" style="edgeStyle=orthogonalEdgeStyle;rounded=0;orthogonalLoop=1;jettySize=auto;html=1;fontSize=15;fontStyle=1" edge="1" parent="1" source="ESwnANH3MgLvUC6T9eyU-5" target="ESwnANH3MgLvUC6T9eyU-1">
          <mxGeometry relative="1" as="geometry" />
        </mxCell>
        <mxCell id="ESwnANH3MgLvUC6T9eyU-7" value="n" style="edgeLabel;html=1;align=center;verticalAlign=middle;resizable=0;points=[];fontSize=15;fontStyle=1" vertex="1" connectable="0" parent="ESwnANH3MgLvUC6T9eyU-6">
          <mxGeometry x="0.0067" y="2" relative="1" as="geometry">
            <mxPoint as="offset" />
          </mxGeometry>
        </mxCell>
        <mxCell id="ESwnANH3MgLvUC6T9eyU-5" value="&lt;span style=&quot;color: rgb(51, 51, 51); font-family: PingFangSC-Medium, &amp;quot;PingFang SC Medium&amp;quot;, &amp;quot;PingFang SC&amp;quot;, sans-serif; font-size: 15px; text-align: left; background-color: rgb(242, 242, 242);&quot;&gt;固危废产生记录&lt;/span&gt;&lt;span style=&quot;color: rgb(51, 51, 51); font-family: PingFangSC-Medium, &amp;quot;PingFang SC Medium&amp;quot;, &amp;quot;PingFang SC&amp;quot;, sans-serif; font-size: 15px; text-align: left; background-color: rgb(242, 242, 242);&quot;&gt;附件&lt;/span&gt;" style="rounded=1;whiteSpace=wrap;html=1;fontSize=15;fontStyle=1" vertex="1" parent="1">
          <mxGeometry x="640" y="130" width="120" height="60" as="geometry" />
        </mxCell>
        <mxCell id="ESwnANH3MgLvUC6T9eyU-10" value="" style="edgeStyle=orthogonalEdgeStyle;rounded=0;orthogonalLoop=1;jettySize=auto;html=1;fontSize=15;fontStyle=1" edge="1" parent="1" source="ESwnANH3MgLvUC6T9eyU-8" target="ESwnANH3MgLvUC6T9eyU-9">
          <mxGeometry relative="1" as="geometry" />
        </mxCell>
        <mxCell id="ESwnANH3MgLvUC6T9eyU-11" value="n" style="edgeLabel;html=1;align=center;verticalAlign=middle;resizable=0;points=[];fontSize=15;fontStyle=1" vertex="1" connectable="0" parent="ESwnANH3MgLvUC6T9eyU-10">
          <mxGeometry x="-0.0267" y="-2" relative="1" as="geometry">
            <mxPoint x="-2" as="offset" />
          </mxGeometry>
        </mxCell>
        <mxCell id="ESwnANH3MgLvUC6T9eyU-13" style="edgeStyle=orthogonalEdgeStyle;rounded=0;orthogonalLoop=1;jettySize=auto;html=1;entryX=0;entryY=0.5;entryDx=0;entryDy=0;fontSize=15;fontStyle=1" edge="1" parent="1" source="ESwnANH3MgLvUC6T9eyU-8" target="ESwnANH3MgLvUC6T9eyU-12">
          <mxGeometry relative="1" as="geometry" />
        </mxCell>
        <mxCell id="ESwnANH3MgLvUC6T9eyU-14" value="n" style="edgeLabel;html=1;align=center;verticalAlign=middle;resizable=0;points=[];fontSize=15;fontStyle=1" vertex="1" connectable="0" parent="ESwnANH3MgLvUC6T9eyU-13">
          <mxGeometry x="0.2689" y="2" relative="1" as="geometry">
            <mxPoint as="offset" />
          </mxGeometry>
        </mxCell>
        <mxCell id="ESwnANH3MgLvUC6T9eyU-15" value="" style="edgeStyle=orthogonalEdgeStyle;rounded=0;orthogonalLoop=1;jettySize=auto;html=1;fontSize=15;fontStyle=1" edge="1" parent="1" source="ESwnANH3MgLvUC6T9eyU-8" target="ESwnANH3MgLvUC6T9eyU-1">
          <mxGeometry relative="1" as="geometry" />
        </mxCell>
        <mxCell id="ESwnANH3MgLvUC6T9eyU-16" value="n" style="edgeLabel;html=1;align=center;verticalAlign=middle;resizable=0;points=[];fontSize=15;fontStyle=1" vertex="1" connectable="0" parent="ESwnANH3MgLvUC6T9eyU-15">
          <mxGeometry x="-0.05" relative="1" as="geometry">
            <mxPoint as="offset" />
          </mxGeometry>
        </mxCell>
        <mxCell id="ESwnANH3MgLvUC6T9eyU-8" value="&lt;span style=&quot;color: rgb(51, 51, 51); font-family: PingFangSC-Medium, &amp;quot;PingFang SC Medium&amp;quot;, &amp;quot;PingFang SC&amp;quot;, sans-serif; font-size: 15px; text-align: left; background-color: rgb(242, 242, 242);&quot;&gt;固危废转存记录&lt;/span&gt;" style="rounded=1;whiteSpace=wrap;html=1;fontSize=15;fontStyle=1" vertex="1" parent="1">
          <mxGeometry x="380" y="270" width="120" height="60" as="geometry" />
        </mxCell>
        <mxCell id="ESwnANH3MgLvUC6T9eyU-9" value="&lt;div style=&quot;text-align: left; font-size: 15px;&quot;&gt;&lt;span style=&quot;color: rgb(51, 51, 51); font-family: PingFangSC-Medium, &amp;quot;PingFang SC Medium&amp;quot;, &amp;quot;PingFang SC&amp;quot;, sans-serif; font-size: 15px; background-color: rgb(242, 242, 242);&quot;&gt;固危废&lt;/span&gt;&lt;span style=&quot;background-color: rgb(242, 242, 242); color: rgb(51, 51, 51); font-family: PingFangSC-Regular, &amp;quot;PingFang SC&amp;quot;, sans-serif; font-size: 15px; text-align: right;&quot;&gt;暂存单位&lt;/span&gt;&lt;/div&gt;" style="rounded=1;whiteSpace=wrap;html=1;fontSize=15;fontStyle=1" vertex="1" parent="1">
          <mxGeometry x="140" y="270" width="120" height="60" as="geometry" />
        </mxCell>
        <mxCell id="ESwnANH3MgLvUC6T9eyU-12" value="&lt;span style=&quot;text-align: left; color: rgb(51, 51, 51); font-family: PingFangSC-Medium, &amp;quot;PingFang SC Medium&amp;quot;, &amp;quot;PingFang SC&amp;quot;, sans-serif; font-size: 15px; background-color: rgb(242, 242, 242);&quot;&gt;固危废&lt;/span&gt;&lt;span style=&quot;background-color: rgb(242, 242, 242); color: rgb(51, 51, 51); font-family: PingFangSC-Regular, &amp;quot;PingFang SC&amp;quot;, sans-serif; font-size: 15px; text-align: right;&quot;&gt;暂存仓库&lt;/span&gt;" style="rounded=1;whiteSpace=wrap;html=1;fontSize=15;fontStyle=1" vertex="1" parent="1">
          <mxGeometry x="640" y="270" width="120" height="60" as="geometry" />
        </mxCell>
        <mxCell id="ESwnANH3MgLvUC6T9eyU-19" value="" style="edgeStyle=orthogonalEdgeStyle;rounded=0;orthogonalLoop=1;jettySize=auto;html=1;fontSize=15;fontStyle=1" edge="1" parent="1" source="ESwnANH3MgLvUC6T9eyU-17" target="ESwnANH3MgLvUC6T9eyU-18">
          <mxGeometry relative="1" as="geometry" />
        </mxCell>
        <mxCell id="ESwnANH3MgLvUC6T9eyU-20" value="n" style="edgeLabel;html=1;align=center;verticalAlign=middle;resizable=0;points=[];fontSize=15;fontStyle=1" vertex="1" connectable="0" parent="ESwnANH3MgLvUC6T9eyU-19">
          <mxGeometry x="0.112" relative="1" as="geometry">
            <mxPoint as="offset" />
          </mxGeometry>
        </mxCell>
        <mxCell id="ESwnANH3MgLvUC6T9eyU-24" value="" style="edgeStyle=orthogonalEdgeStyle;rounded=0;orthogonalLoop=1;jettySize=auto;html=1;fontSize=15;fontStyle=1" edge="1" parent="1" source="ESwnANH3MgLvUC6T9eyU-17" target="ESwnANH3MgLvUC6T9eyU-8">
          <mxGeometry relative="1" as="geometry" />
        </mxCell>
        <mxCell id="ESwnANH3MgLvUC6T9eyU-25" value="n" style="edgeLabel;html=1;align=center;verticalAlign=middle;resizable=0;points=[];fontSize=15;fontStyle=1" vertex="1" connectable="0" parent="ESwnANH3MgLvUC6T9eyU-24">
          <mxGeometry x="-0.06" y="1" relative="1" as="geometry">
            <mxPoint as="offset" />
          </mxGeometry>
        </mxCell>
        <mxCell id="ESwnANH3MgLvUC6T9eyU-17" value="&lt;span style=&quot;color: rgb(51, 51, 51); font-family: PingFangSC-Medium, &amp;quot;PingFang SC Medium&amp;quot;, &amp;quot;PingFang SC&amp;quot;, sans-serif; font-size: 15px; text-align: left; background-color: rgb(242, 242, 242);&quot;&gt;固危废处置记录&lt;/span&gt;" style="rounded=1;whiteSpace=wrap;html=1;fontSize=15;fontStyle=1" vertex="1" parent="1">
          <mxGeometry x="380" y="420" width="120" height="60" as="geometry" />
        </mxCell>
        <mxCell id="ESwnANH3MgLvUC6T9eyU-18" value="&lt;span style=&quot;color: rgb(51, 51, 51); font-family: PingFangSC-Medium, &amp;quot;PingFang SC Medium&amp;quot;, &amp;quot;PingFang SC&amp;quot;, sans-serif; font-size: 15px; text-align: left; background-color: rgb(242, 242, 242);&quot;&gt;固危废处置单位&lt;/span&gt;" style="rounded=1;whiteSpace=wrap;html=1;fontSize=15;fontStyle=1" vertex="1" parent="1">
          <mxGeometry x="140" y="420" width="120" height="60" as="geometry" />
        </mxCell>
        <mxCell id="ESwnANH3MgLvUC6T9eyU-22" value="" style="edgeStyle=orthogonalEdgeStyle;rounded=0;orthogonalLoop=1;jettySize=auto;html=1;fontSize=15;fontStyle=1" edge="1" parent="1" source="ESwnANH3MgLvUC6T9eyU-21" target="ESwnANH3MgLvUC6T9eyU-17">
          <mxGeometry relative="1" as="geometry" />
        </mxCell>
        <mxCell id="ESwnANH3MgLvUC6T9eyU-23" value="n" style="edgeLabel;html=1;align=center;verticalAlign=middle;resizable=0;points=[];fontSize=15;fontStyle=1" vertex="1" connectable="0" parent="ESwnANH3MgLvUC6T9eyU-22">
          <mxGeometry x="-0.16" y="4" relative="1" as="geometry">
            <mxPoint y="-4" as="offset" />
          </mxGeometry>
        </mxCell>
        <mxCell id="ESwnANH3MgLvUC6T9eyU-21" value="&lt;span style=&quot;color: rgb(51, 51, 51); font-family: PingFangSC-Medium, &amp;quot;PingFang SC Medium&amp;quot;, &amp;quot;PingFang SC&amp;quot;, sans-serif; font-size: 15px; text-align: left; background-color: rgb(242, 242, 242);&quot;&gt;固危废产生记录&lt;/span&gt;&lt;span style=&quot;color: rgb(51, 51, 51); font-family: PingFangSC-Medium, &amp;quot;PingFang SC Medium&amp;quot;, &amp;quot;PingFang SC&amp;quot;, sans-serif; font-size: 15px; text-align: left; background-color: rgb(242, 242, 242);&quot;&gt;附件&lt;/span&gt;" style="rounded=1;whiteSpace=wrap;html=1;fontSize=15;fontStyle=1" vertex="1" parent="1">
          <mxGeometry x="640" y="420" width="120" height="60" as="geometry" />
        </mxCell>
      </root>
    </mxGraphModel>
  </diagram>
</mxfile>
